<?xml version="1.0" standalone="no"?>
<!DOCTYPE svg PUBLIC "-//W3C//DTD SVG 20010904//EN"
 "http://www.w3.org/TR/2001/REC-SVG-20010904/DTD/svg10.dtd">
<svg version="1.0" xmlns="http://www.w3.org/2000/svg"
 width="225.000000pt" height="225.000000pt" viewBox="0 0 225.000000 225.000000"
 preserveAspectRatio="xMidYMid meet">
<metadata>
Created by potrace 1.14, written by Peter Selinger 2001-2017
</metadata>
<g transform="translate(0.000000,225.000000) scale(0.100000,-0.100000)"
fill="#000000" stroke="none">
<path d="M690 2224 c-19 -16 -29 -33 -25 -41 3 -11 1 -13 -10 -10 -9 4 -36
-14 -72 -49 -31 -30 -68 -61 -82 -69 -46 -23 -66 -52 -54 -78 14 -30 -1 -57
-32 -57 -34 0 -55 -10 -55 -26 0 -8 -4 -14 -10 -14 -5 0 -10 -6 -10 -14 0 -8
11 -13 25 -13 35 0 41 -9 20 -29 -14 -14 -21 -15 -36 -6 -27 17 -39 15 -39 -7
0 -10 -7 -24 -15 -31 -8 -7 -15 -20 -15 -30 0 -10 -6 -20 -13 -23 -13 -5 -57
-138 -57 -172 0 -9 -7 -29 -15 -45 -11 -22 -12 -35 -4 -60 9 -25 8 -43 -6 -87
-16 -51 -17 -69 -5 -202 7 -87 19 -166 30 -196 35 -96 81 -199 91 -206 6 -3
14 -37 19 -74 8 -64 36 -124 55 -117 4 1 7 35 6 76 -3 95 14 154 46 162 20 5
25 13 25 34 0 3 -3 15 -6 26 -6 19 -2 23 28 28 72 14 89 -1 133 -116 26 -68
45 -63 73 19 22 66 24 157 4 172 -5 3 -14 15 -20 26 -6 11 -20 22 -30 23 -29
6 -44 32 -44 79 0 23 -6 57 -14 75 -8 18 -22 50 -31 70 -15 37 -13 98 5 123
32 44 35 204 4 252 -27 42 -8 78 98 184 54 54 110 102 123 105 14 3 25 10 25
14 0 4 17 11 38 15 20 4 60 18 88 31 28 13 58 24 67 24 9 0 19 5 22 10 3 6 16
10 28 9 12 0 16 -3 10 -6 -9 -3 -9 -11 3 -29 9 -13 13 -24 9 -24 -4 0 -2 -7 5
-15 7 -9 14 -25 15 -38 1 -12 3 -26 4 -31 0 -4 8 -6 16 -2 8 3 15 1 15 -4 0
-6 8 -10 18 -10 14 0 15 -2 2 -10 -9 -6 -17 -5 -21 1 -4 7 -8 6 -11 -3 -6 -14
-107 -67 -171 -89 -20 -7 -58 -32 -84 -54 -46 -41 -47 -42 -34 -74 12 -27 11
-34 -1 -49 -20 -23 -30 -52 -17 -52 5 0 34 14 64 30 30 17 64 30 76 30 19 0
15 -7 -31 -54 -29 -29 -57 -61 -62 -70 -5 -9 -17 -16 -27 -16 -10 0 -26 -9
-35 -19 -19 -20 -14 -41 8 -41 16 0 72 27 107 51 27 19 49 11 49 -19 0 -7 5
-10 10 -7 6 4 17 2 25 -5 10 -8 22 -7 50 5 21 8 49 15 64 15 51 0 129 72 167
154 28 61 39 73 74 78 18 2 26 -2 28 -17 3 -11 18 -40 34 -64 23 -32 33 -40
39 -30 7 11 13 10 30 -8 19 -19 21 -26 11 -47 -6 -14 -26 -32 -44 -40 -18 -7
-59 -40 -91 -71 -48 -47 -60 -55 -72 -45 -8 7 -15 22 -15 34 0 12 -6 31 -14
41 -13 18 -16 18 -41 5 -15 -8 -31 -26 -37 -39 -6 -18 -11 -22 -17 -13 -5 8
-13 -9 -20 -44 -8 -34 -9 -59 -4 -63 5 -3 12 -13 15 -22 7 -19 -11 -99 -22
-99 -13 0 -30 -85 -24 -126 3 -21 15 -68 25 -104 11 -36 24 -78 28 -95 5 -16
12 -49 16 -72 4 -23 13 -47 21 -54 8 -6 14 -22 14 -34 0 -17 9 -26 31 -34 18
-6 35 -11 39 -11 3 0 6 42 6 92 -1 110 7 148 32 148 10 0 22 -4 28 -9 12 -12
111 -30 134 -24 10 3 27 0 38 -6 25 -13 38 -61 20 -72 -9 -6 -12 -30 -11 -81
2 -48 -2 -75 -10 -80 -8 -5 -9 -10 -2 -15 50 -36 74 -126 38 -140 -10 -4 -24
-13 -31 -20 -7 -7 -25 -16 -40 -19 -15 -4 -46 -27 -68 -52 l-42 -45 -85 8
c-80 6 -87 5 -108 -16 -16 -16 -33 -22 -61 -21 -21 1 -38 -1 -38 -5 0 -22 26
-73 37 -73 8 0 13 -13 13 -32 0 -18 9 -55 19 -83 l19 -50 415 -3 414 -2 7 37
c3 21 6 70 6 109 0 38 4 74 9 80 5 5 12 56 15 114 3 58 8 121 11 140 5 26 4
31 -4 20 -9 -13 -12 -12 -25 5 -16 21 -12 50 10 72 10 11 13 9 17 -9 2 -13 5
1 6 30 0 33 5 51 11 47 6 -4 10 12 9 42 -1 36 -3 42 -8 23 -12 -42 -22 -7 -33
113 -5 62 -16 127 -24 146 -8 18 -14 47 -14 63 0 17 -11 52 -24 78 -29 58 -44
116 -26 105 9 -6 9 -3 1 14 -7 12 -9 26 -6 32 4 5 2 15 -3 22 -11 13 -27 77
-23 91 1 5 -5 6 -14 2 -10 -3 -14 -2 -10 5 8 12 -9 62 -58 169 -14 30 -33 81
-42 112 -12 41 -26 66 -54 91 -21 18 -51 53 -67 77 -16 24 -45 52 -64 63 -19
11 -52 35 -73 53 -36 33 -42 36 -82 38 -14 1 -21 9 -23 29 -3 26 -1 27 38 27
38 0 41 2 34 23 -4 12 -15 28 -25 35 -10 7 -39 40 -65 73 -42 55 -49 60 -76
55 -20 -4 -30 -1 -34 9 -5 12 -27 15 -105 15 -67 0 -99 -4 -99 -11 0 -8 -4 -8
-12 -1 -7 6 -50 11 -96 11 l-82 1 6 -25 c6 -24 4 -25 -27 -19 -42 8 -69 22
-69 34 0 6 -18 10 -39 10 -28 0 -49 -8 -71 -26z m-35 -83 c3 -5 1 -12 -5 -16
-5 -3 -10 1 -10 9 0 18 6 21 15 7z m-35 -32 c0 -6 -4 -7 -10 -4 -5 3 -10 11
-10 16 0 6 5 7 10 4 6 -3 10 -11 10 -16z m900 -231 c0 -15 -27 -8 -53 15 -39
33 -33 39 13 14 22 -12 40 -25 40 -29z m-1216 -143 c-4 -8 -8 -15 -10 -15 -2
0 -4 7 -4 15 0 8 4 15 10 15 5 0 7 -7 4 -15z m1274 -227 c8 -8 15 -8 24 0 8 6
19 7 26 3 15 -9 4 -44 -12 -38 -6 2 -19 0 -29 -5 -19 -10 -87 7 -87 22 0 5 12
13 28 18 36 14 36 14 50 0z m313 -240 c18 -23 26 -58 12 -58 -5 0 -16 14 -25
31 -29 50 -21 67 13 27z m-483 -20 c-1 -13 -6 -28 -11 -35 -5 -7 -6 -17 -3
-22 4 -6 -9 -26 -29 -46 -19 -20 -35 -40 -35 -44 0 -13 -62 -71 -76 -71 -23 0
-16 59 17 141 32 80 46 93 105 97 28 2 33 0 32 -20z m295 -201 c33 -18 37 -25
37 -59 l0 -39 -29 22 c-27 20 -32 20 -127 9 -94 -11 -142 -27 -173 -57 -17
-18 -41 0 -41 32 0 24 74 90 89 80 11 -6 61 15 61 26 0 4 8 5 18 2 10 -2 34 0
53 5 39 12 60 8 112 -21z m-1300 -162 c-18 -8 -38 -25 -44 -39 -16 -33 -31
-23 -18 12 13 33 26 42 64 41 l30 0 -32 -14z"/>
<path d="M960 1950 c-36 -15 -40 -19 -20 -19 50 -1 100 12 100 25 0 18 -25 16
-80 -6z"/>
<path d="M463 728 c-48 -50 -60 -86 -43 -128 16 -39 43 -38 74 3 34 46 50 105
37 140 -6 15 -14 27 -19 27 -4 0 -26 -19 -49 -42z"/>
<path d="M1040 567 c0 -25 -55 -61 -93 -62 -19 0 -21 -5 -19 -45 5 -66 24 -90
72 -90 33 0 40 3 40 20 0 17 7 20 39 20 32 0 40 -4 43 -21 3 -17 5 -18 19 -7
20 17 15 108 -7 108 -10 0 -14 14 -14 50 l0 50 -40 0 c-35 0 -40 -3 -40 -23z"/>
<path d="M645 528 c-11 -6 -31 -22 -44 -35 -20 -19 -34 -23 -87 -23 -35 0 -64
-4 -64 -8 0 -4 12 -24 26 -43 22 -29 69 -120 169 -332 17 -36 76 -79 90 -66 7
8 -26 88 -57 139 -15 25 -37 65 -49 90 -26 57 -40 86 -67 133 -39 67 -26 86
28 41 28 -24 37 -26 82 -21 28 4 56 11 61 16 13 13 12 64 -2 69 -6 2 -11 8
-11 14 0 14 -26 38 -42 38 -7 0 -22 -6 -33 -12z"/>
</g>
</svg>
